<svg xmlns="http://www.w3.org/2000/svg" width="1200" height="800" viewBox="0 0 1200 800" role="img" aria-label="Dove of peace">
  <defs>
    <linearGradient id="bg3" x1="0" y1="0" x2="1" y2="1">
      <stop offset="0%" stop-color="#ecfeff"/>
      <stop offset="100%" stop-color="#dbeafe"/>
    </linearGradient>
  </defs>
  <rect width="1200" height="800" fill="url(#bg3)"/>
  <g transform="translate(420,420) scale(1.1)">
    <circle cx="240" cy="-60" r="28" fill="#0ea5e9"/>
    <path d="M0,0 C120,-40 180,-60 260,-40 C340,-20 420,40 460,120 C380,100 320,80 270,70 C220,60 140,60 80,140 C80,80 40,40 0,0 Z" fill="#38bdf8"/>
    <path d="M80,140 C140,60 220,60 270,70 C220,120 160,160 100,170" fill="#7dd3fc"/>
  </g>
  <text x="50%" y="92%" text-anchor="middle" font-family="system-ui,Segoe UI,Roboto,sans-serif" font-size="40" fill="#6b7280">Peace and Grace</text>
</svg>

